<?xml version="1.0" encoding="UTF-8" standalone="no"?>
<!-- Created with Inkscape (http://www.inkscape.org/) -->

<svg
   width="197.91054mm"
   height="30.522816mm"
   viewBox="0 0 197.91054 30.522815"
   version="1.1"
   id="svg1"
   inkscape:version="1.3 (0e150ed, 2023-07-21)"
   sodipodi:docname="OperaMetrix - Logo couleur.svg"
   xml:space="preserve"
   inkscape:export-filename="OperaMetrix - Logo couleur.png"
   inkscape:export-xdpi="300"
   inkscape:export-ydpi="300"
   xmlns:inkscape="http://www.inkscape.org/namespaces/inkscape"
   xmlns:sodipodi="http://sodipodi.sourceforge.net/DTD/sodipodi-0.dtd"
   xmlns="http://www.w3.org/2000/svg"
   xmlns:svg="http://www.w3.org/2000/svg"><sodipodi:namedview
     id="namedview1"
     pagecolor="#ffffff"
     bordercolor="#000000"
     borderopacity="0.25"
     inkscape:showpageshadow="2"
     inkscape:pageopacity="0.0"
     inkscape:pagecheckerboard="true"
     inkscape:deskcolor="#d1d1d1"
     inkscape:document-units="px"
     inkscape:zoom="0.86866477"
     inkscape:cx="309.67067"
     inkscape:cy="78.281061"
     inkscape:window-width="1920"
     inkscape:window-height="1027"
     inkscape:window-x="0"
     inkscape:window-y="25"
     inkscape:window-maximized="0"
     inkscape:current-layer="layer1"
     showguides="true" /><defs
     id="defs1" /><g
     inkscape:label="Calque principal"
     inkscape:groupmode="layer"
     id="layer1"
     transform="translate(124.6188,-61.383338)"
     style="display:inline"><g
       id="g1"
       inkscape:label="Pictogramme"
       transform="matrix(9.5593157,0,0,9.5593157,1066.6512,-525.39932)"
       style="display:inline"><polyline
         id="polyline6"
         points="7.273,4.025 7.273,11.803    5.764,12.673 0.535,9.657 0.535,7.915 7.273,4.025  "
         style="clip-rule:evenodd;display:inline;opacity:0.7529;fill:#0095cf;fill-rule:evenodd"
         transform="matrix(0.26458333,0,0,0.26458333,-124.7603,61.22326)"
         inkscape:label="Fond bleu" /><polyline
         id="polyline8"
         points="4.255,4.025 10.993,7.915    10.993,9.657 5.764,12.673 4.255,11.803 4.255,4.025  "
         style="clip-rule:evenodd;display:inline;opacity:0.7529;fill:#9ab700;fill-rule:evenodd"
         transform="matrix(0.26458333,0,0,0.26458333,-124.76004,61.22326)"
         inkscape:label="Fond vert" /><polyline
         id="polyline10"
         points="0.535,3.62 2.045,2.75 8.783,6.639    2.045,10.528 0.535,9.657 0.535,3.62  "
         style="clip-rule:evenodd;display:inline;opacity:0.7529;fill:#55398d;fill-rule:evenodd"
         transform="matrix(0.26458333,0,0,0.26458333,-124.7603,61.22326)"
         inkscape:label="Fond violet" /><polyline
         id="polyline12"
         points="10.993,3.62 10.993,5.363 4.255,9.253    4.255,1.475 5.764,0.605 10.993,3.62  "
         style="clip-rule:evenodd;display:inline;opacity:0.7529;fill:#d42b04;fill-rule:evenodd"
         transform="matrix(0.26458333,0,0,0.26458333,-124.76004,61.22326)"
         inkscape:label="Fond orange" /><polyline
         id="polyline14"
         points="2.746,6.639 9.483,2.75 10.993,3.62    10.993,9.657 9.483,10.528 2.746,6.639  "
         style="clip-rule:evenodd;display:inline;opacity:0.7529;fill:#f49401;fill-rule:evenodd"
         transform="matrix(0.26458333,0,0,0.26458333,-124.76004,61.22326)"
         inkscape:label="Fond jaune" /><polyline
         id="polyline16"
         points="5.764,0.605 7.273,1.475 7.273,9.253    0.535,5.363 0.535,3.62 5.764,0.605  "
         style="clip-rule:evenodd;display:inline;opacity:0.7529;fill:#c90652;fill-rule:evenodd"
         transform="matrix(0.26458333,0,0,0.26458333,-124.7603,61.22326)"
         inkscape:label="Fond rose" /><polyline
         id="polyline18"
         points="0.534,6.665 0.534,5.932 1.265,5.932 2.364,5.932    3.429,4.867 4.988,3.308 4.988,8.095 5.923,7.16 7.088,5.996 8.007,5.076 8.007,7.859 9.498,7.859 10.995,7.859 10.995,8.592    9.498,8.592 8.333,8.592 7.273,8.592 7.273,6.847 6.167,7.953 5.002,9.119 4.255,9.865 4.255,5.077 3.672,5.66 2.668,6.665    2.507,6.665 1.265,6.665 0.534,6.665  "
         style="clip-rule:evenodd;display:inline;fill:#ffffff;fill-rule:evenodd"
         transform="matrix(0.26458333,0,0,0.26458333,-124.76004,61.22326)"
         inkscape:label="Signal" /></g><path
       d="m -83.129495,75.557579 q 0,1.349374 0.317499,2.434164 0.343958,1.08479 0.952499,1.878539 0.634999,0.767291 1.534582,1.190624 0.899582,0.423332 2.063747,0.423332 1.137707,0 2.037289,-0.423332 0.926041,-0.423333 1.534581,-1.190624 0.635,-0.793749 0.952499,-1.878539 0.343958,-1.08479 0.343958,-2.434164 0,-1.349373 -0.343958,-2.434163 -0.317499,-1.111249 -0.952499,-1.87854 -0.60854,-0.793748 -1.534581,-1.217081 -0.899582,-0.423333 -2.037289,-0.423333 -1.164165,0 -2.063747,0.449791 -0.899583,0.423333 -1.534582,1.217082 -0.608541,0.76729 -0.952499,1.878539 -0.317499,1.08479 -0.317499,2.407705 z m 13.99644,0 q 0,2.354789 -0.714374,4.153953 -0.687915,1.772706 -1.904997,2.989788 -1.217082,1.190624 -2.910413,1.799165 -1.666873,0.608541 -3.598329,0.608541 -1.878539,0 -3.545412,-0.608541 -1.666873,-0.608541 -2.910413,-1.799165 -1.24354,-1.217082 -1.957914,-2.989788 -0.714374,-1.799164 -0.714374,-4.153953 0,-2.354788 0.740832,-4.127494 0.740832,-1.799165 1.984372,-3.016247 1.269999,-1.217081 2.910413,-1.825622 1.666873,-0.608541 3.492496,-0.608541 1.878539,0 3.545412,0.608541 1.666873,0.608541 2.910413,1.825622 1.24354,1.217082 1.957914,3.016247 0.714374,1.772706 0.714374,4.127494 z m 12.091418,2.328331 q 0,-1.825623 -0.820208,-2.910413 -0.820207,-1.111249 -2.434163,-1.111249 -0.529166,0 -0.978957,0.05292 -0.449791,0.02646 -0.740833,0.07937 v 7.117282 q 0.370416,0.238125 0.952499,0.396875 0.608541,0.15875 1.217082,0.15875 2.80458,0 2.80458,-3.783537 z m 4.021661,-0.105833 q 0,1.613956 -0.396874,2.936871 -0.396875,1.322915 -1.164166,2.275414 -0.76729,0.952498 -1.904997,1.481664 -1.137707,0.529166 -2.619372,0.529166 -0.820207,0 -1.534581,-0.158749 -0.714374,-0.15875 -1.375832,-0.449792 v 5.238744 h -3.942286 V 71.297793 q 0.529166,-0.15875 1.217081,-0.291041 0.687916,-0.15875 1.428749,-0.264583 0.76729,-0.105833 1.534581,-0.15875 0.793749,-0.07938 1.508123,-0.07938 1.719789,0 3.069163,0.529166 1.349373,0.502708 2.275414,1.455207 0.92604,0.92604 1.402289,2.275413 0.502708,1.349374 0.502708,3.016247 z m 2.3812,0.105833 q 0,-1.852081 0.555625,-3.227913 0.582082,-1.40229 1.508123,-2.32833 0.92604,-0.926041 2.116664,-1.40229 1.217082,-0.476249 2.48708,-0.476249 2.963329,0 4.683119,1.825622 1.719789,1.799165 1.719789,5.318118 0,0.343958 -0.02646,0.767291 -0.02646,0.396875 -0.05292,0.714374 h -8.942905 q 0.132292,1.217082 1.137707,1.931456 1.005415,0.714374 2.698747,0.714374 1.08479,0 2.116664,-0.185208 1.058332,-0.211666 1.719789,-0.502708 l 0.529166,3.201455 q -0.317499,0.158749 -0.846665,0.317499 -0.529166,0.15875 -1.190624,0.264583 -0.634999,0.132292 -1.375832,0.211667 -0.740832,0.07937 -1.481664,0.07937 -1.87854,0 -3.280829,-0.555625 -1.375832,-0.555624 -2.301873,-1.508123 -0.899582,-0.978957 -1.349373,-2.301872 -0.423333,-1.322915 -0.423333,-2.857496 z m 9.260405,-1.508123 q -0.02646,-0.502708 -0.185208,-0.978957 -0.132291,-0.47625 -0.449791,-0.846666 -0.291041,-0.370416 -0.767291,-0.608541 -0.449791,-0.238125 -1.137707,-0.238125 -0.661457,0 -1.137706,0.238125 -0.47625,0.211666 -0.793749,0.582083 -0.3175,0.370416 -0.502708,0.873124 -0.15875,0.476249 -0.238125,0.978957 z M -26.1384,74.314039 q -0.529166,-0.132291 -1.24354,-0.264583 -0.714374,-0.15875 -1.534581,-0.15875 -0.370417,0 -0.899583,0.07937 -0.502707,0.05292 -0.76729,0.132292 v 10.636236 h -3.942287 V 71.562376 q 1.058332,-0.370416 2.48708,-0.687916 1.455207,-0.343958 3.227913,-0.343958 0.317499,0 0.767291,0.05292 0.449791,0.02646 0.899582,0.105833 0.449791,0.05292 0.899582,0.15875 0.449791,0.07938 0.767291,0.211666 z m 7.831625,7.672907 q 0.582082,0 1.111248,-0.02646 0.529166,-0.02646 0.846666,-0.07937 v -2.989788 q -0.238125,-0.05292 -0.714374,-0.105833 -0.47625,-0.05292 -0.873124,-0.05292 -0.555624,0 -1.058332,0.07937 -0.476249,0.05292 -0.846666,0.238125 -0.370416,0.185208 -0.582082,0.502708 -0.211667,0.317499 -0.211667,0.793749 0,0.92604 0.608541,1.296456 0.634999,0.343958 1.71979,0.343958 z m -0.3175,-11.535818 q 1.746248,0 2.910413,0.396874 1.164165,0.396874 1.852081,1.137707 0.714374,0.740832 1.005415,1.799164 0.291042,1.058332 0.291042,2.354789 v 8.202073 q -0.846666,0.185208 -2.354789,0.423333 -1.508123,0.264583 -3.651245,0.264583 -1.349374,0 -2.460622,-0.238125 -1.08479,-0.238125 -1.878539,-0.767291 -0.793749,-0.555624 -1.217082,-1.428748 -0.423333,-0.873124 -0.423333,-2.143122 0,-1.217082 0.476249,-2.063748 0.502708,-0.846665 1.322915,-1.349373 0.820208,-0.502708 1.87854,-0.714374 1.058332,-0.238125 2.196039,-0.238125 0.76729,0 1.349373,0.07938 0.608541,0.05292 0.978957,0.15875 v -0.370416 q 0,-1.005416 -0.608541,-1.613956 -0.608541,-0.608541 -2.116664,-0.608541 -1.005415,0 -1.984372,0.158749 -0.978958,0.132292 -1.693332,0.396875 l -0.502707,-3.174996 q 0.343958,-0.105833 0.846665,-0.211666 0.529166,-0.132292 1.137707,-0.211667 0.608541,-0.105833 1.269999,-0.15875 0.687915,-0.07937 1.375831,-0.07937 z m 14.7637156,-4.04812 q 0.4762494,0.873124 1.0847903,2.16958 0.6349991,1.269999 1.2964566,2.778122 0.68791582,1.481664 1.34937332,3.042704 0.66145749,1.56104 1.24354008,2.936871 0.5820826,-1.375831 1.2435401,-2.936871 0.6614575,-1.56104 1.322915,-3.042704 0.6879158,-1.508123 1.2964566,-2.778122 0.6349992,-1.296456 1.1112486,-2.16958 h 3.7570786 q 0.2645832,1.825622 0.4762492,4.101036 0.238125,2.248956 0.396875,4.709577 0.185208,2.434164 0.317499,4.894786 0.15875,2.460622 0.264583,4.630202 H 7.2783847 Q 7.1990098,82.066321 7.0667183,78.917783 6.9344268,75.769246 6.6698438,72.567791 6.1935944,73.67904 5.6115118,75.028413 5.0294292,76.377787 4.4473467,77.72716 3.8917224,79.076533 3.3625564,80.320073 2.8333904,81.537155 2.4629742,82.410279 h -2.88395468 q -0.3704162,-0.873124 -0.89958222,-2.090206 -0.529166,-1.24354 -1.1112486,-2.592913 -0.5556242,-1.349373 -1.1377068,-2.698747 -0.5820826,-1.349373 -1.058332,-2.460622 -0.264583,3.201455 -0.3968745,6.349992 -0.1322915,3.148538 -0.2116664,5.820826 h -4.0216616 q 0.1058332,-2.16958 0.2381247,-4.630202 0.1587498,-2.460622 0.3174996,-4.894786 0.1852081,-2.460621 0.3968745,-4.709577 0.2381247,-2.275414 0.5027077,-4.101036 z M 14.078151,77.88591 q 0,-1.852081 0.555624,-3.227913 0.582083,-1.40229 1.508123,-2.32833 0.926041,-0.926041 2.116664,-1.40229 1.217082,-0.476249 2.48708,-0.476249 2.96333,0 4.683119,1.825622 1.71979,1.799165 1.71979,5.318118 0,0.343958 -0.02646,0.767291 -0.02646,0.396875 -0.05292,0.714374 h -8.942905 q 0.132291,1.217082 1.137707,1.931456 1.005415,0.714374 2.698746,0.714374 1.084791,0 2.116664,-0.185208 1.058332,-0.211666 1.71979,-0.502708 l 0.529166,3.201455 q -0.3175,0.158749 -0.846666,0.317499 -0.529166,0.15875 -1.190623,0.264583 -0.635,0.132292 -1.375832,0.211667 -0.740832,0.07937 -1.481665,0.07937 -1.878539,0 -3.280829,-0.555625 -1.375831,-0.555624 -2.301872,-1.508123 -0.899582,-0.978957 -1.349373,-2.301872 -0.423333,-1.322915 -0.423333,-2.857496 z m 9.260405,-1.508123 q -0.02646,-0.502708 -0.185208,-0.978957 -0.132292,-0.47625 -0.449791,-0.846666 -0.291042,-0.370416 -0.767291,-0.608541 -0.449791,-0.238125 -1.137707,-0.238125 -0.661457,0 -1.137707,0.238125 -0.476249,0.211666 -0.793749,0.582083 -0.317499,0.370416 -0.502708,0.873124 -0.158749,0.476249 -0.238124,0.978957 z m 6.720398,-9.022281 3.942287,-0.634999 v 4.101037 h 4.736035 v 3.280829 h -4.736035 v 4.894785 q 0,1.24354 0.423333,1.984373 0.449791,0.740832 1.772706,0.740832 0.634999,0 1.296456,-0.105833 0.687916,-0.132292 1.24354,-0.343958 l 0.555625,3.069163 q -0.714374,0.291041 -1.587498,0.502708 -0.873124,0.211666 -2.143122,0.211666 -1.613957,0 -2.672289,-0.423333 -1.058332,-0.449791 -1.693331,-1.217082 -0.634999,-0.793749 -0.899582,-1.904997 -0.238125,-1.111249 -0.238125,-2.460622 z m 20.267009,6.958533 q -0.529166,-0.132291 -1.24354,-0.264583 -0.714374,-0.15875 -1.534581,-0.15875 -0.370416,0 -0.899582,0.07937 -0.502708,0.05292 -0.767291,0.132292 V 84.738609 H 41.938682 V 71.562376 q 1.058332,-0.370416 2.48708,-0.687916 1.455207,-0.343958 3.227913,-0.343958 0.3175,0 0.767291,0.05292 0.449791,0.02646 0.899582,0.105833 0.449791,0.05292 0.899582,0.15875 0.449791,0.07938 0.767291,0.211666 z m 6.720381,10.42457 H 53.104057 V 70.821544 h 3.942287 z M 57.41676,66.799882 q 0,1.08479 -0.714374,1.71979 -0.687916,0.608541 -1.640415,0.608541 -0.952499,0 -1.666873,-0.608541 -0.687916,-0.635 -0.687916,-1.71979 0,-1.08479 0.687916,-1.693331 0.714374,-0.634999 1.666873,-0.634999 0.952499,0 1.640415,0.634999 0.714374,0.608541 0.714374,1.693331 z m 8.86352,8.25499 2.751663,-4.233328 h 4.074579 l -4.762494,6.69395 q 1.587498,1.984372 2.883954,3.862911 1.296457,1.87854 2.063748,3.360204 h -4.233328 q -0.211667,-0.396874 -0.529166,-0.978957 -0.3175,-0.608541 -0.714374,-1.24354 -0.396875,-0.661457 -0.846666,-1.296457 -0.423333,-0.661457 -0.846666,-1.190623 -0.396874,0.502708 -0.820207,1.111249 -0.396874,0.60854 -0.767291,1.24354 -0.370416,0.608541 -0.740832,1.217081 -0.343958,0.608541 -0.608541,1.137707 h -4.021661 q 0.317499,-0.661457 0.873123,-1.561039 0.555625,-0.899583 1.190624,-1.852081 0.661457,-0.978957 1.375832,-1.931456 0.714374,-0.978957 1.402289,-1.825623 -1.190623,-1.666873 -2.381247,-3.360204 -1.190623,-1.719789 -2.354788,-3.386662 h 4.259786 z"
       id="text1"
       style="font-weight:bold;font-size:26.4583px;font-family:Ubuntu;-inkscape-font-specification:'Ubuntu Bold';fill:#393635;stroke-width:0.264583"
       inkscape:label="OperaMetrix"
       aria-label="OperaMetrix" /></g></svg>
